HIERARCHY
ROOT RootJoint
{
    OFFSET   0.000000   0.000000   0.000000
    CHANNELS 6 Xposition Yposition Zposition Xrotation Yrotation Zrotation
    JOINT pelvis_lowerback
    {
        OFFSET   0.000000   0.093605   0.000000
        CHANNELS 3 Xrotation Yrotation Zrotation
        JOINT lowerback_torso
        {
            OFFSET   0.000000   0.100000   0.000000
            CHANNELS 3 Xrotation Yrotation Zrotation
            JOINT torso_head
            {
                OFFSET   0.000000   0.282350   0.000000
                CHANNELS 3 Xrotation Yrotation Zrotation
                End Site
                {
                    OFFSET   0.000000   0.192650   0.000000
                }
            }
            JOINT rTorso_Clavicle
            {
                OFFSET  -0.001000   0.157500   0.000000
                CHANNELS 3 Xrotation Yrotation Zrotation
                JOINT rShoulder
                {
                    OFFSET  -0.117647   0.000000   0.000000
                    CHANNELS 3 Xrotation Yrotation Zrotation
                    JOINT rElbow
                    {
                        OFFSET  -0.245000   0.000000   0.000000
                        CHANNELS 3 Xrotation Yrotation Zrotation
                        JOINT rWrist
                        {
                            OFFSET  -0.240000   0.000000   0.000000
                            CHANNELS 3 Xrotation Yrotation Zrotation
                            End Site
                            {
                                OFFSET  -0.116353  -0.002500   0.000000
                            }
                        }
                    }
                }
            }
            JOINT lTorso_Clavicle
            {
                OFFSET   0.001000   0.157500   0.000000
                CHANNELS 3 Xrotation Yrotation Zrotation
                JOINT lShoulder
                {
                    OFFSET   0.117647   0.000000   0.000000
                    CHANNELS 3 Xrotation Yrotation Zrotation
                    JOINT lElbow
                    {
                        OFFSET   0.245000   0.000000   0.000000
                        CHANNELS 3 Xrotation Yrotation Zrotation
                        JOINT lWrist
                        {
                            OFFSET   0.240000   0.000000   0.000000
                            CHANNELS 3 Xrotation Yrotation Zrotation
                            End Site
                            {
                                OFFSET   0.116353  -0.002500   0.000000
                            }
                        }
                    }
                }
            }
        }
    }
    JOINT rHip
    {
        OFFSET  -0.100000  -0.051395   0.000000
        CHANNELS 3 Xrotation Yrotation Zrotation
        JOINT rKnee
        {
            OFFSET   0.000000  -0.410000   0.000000
            CHANNELS 3 Xrotation Yrotation Zrotation
            JOINT rAnkle
            {
                OFFSET   0.000000  -0.390000   0.000000
                CHANNELS 3 Xrotation Yrotation Zrotation
                JOINT rToeJoint
                {
                    OFFSET   0.000000  -0.050000   0.130000
                    CHANNELS 3 Xrotation Yrotation Zrotation
                    End Site
                    {
                        OFFSET  -0.010000   0.002000   0.060000
                    }
                }
            }
        }
    }
    JOINT lHip
    {
        OFFSET   0.100000  -0.051395   0.000000
        CHANNELS 3 Xrotation Yrotation Zrotation
        JOINT lKnee
        {
            OFFSET   0.000000  -0.410000   0.000000
            CHANNELS 3 Xrotation Yrotation Zrotation
            JOINT lAnkle
            {
                OFFSET   0.000000  -0.390000   0.000000
                CHANNELS 3 Xrotation Yrotation Zrotation
                JOINT lToeJoint
                {
                    OFFSET   0.000000  -0.050000   0.130000
                    CHANNELS 3 Xrotation Yrotation Zrotation
                    End Site
                    {
                        OFFSET   0.010000   0.002000   0.060000
                    }
                }
            }
        }
    }
}
MOTION
Frames: 12
Frame Time:   0.008333
 -2.349372   0.916670   4.029020  -2.834954   2.860664  -0.102473   1.966812   1.996376  -1.357975  11.447865  -0.724285   0.348050  -0.067889  -0.432615   0.173870   4.047372   7.188520  15.907045   7.679054  11.803061  43.380554  -0.000008  18.226279   0.000010  10.693586   3.504019   1.159034   4.079441  -3.902278 -16.627362   7.135797  -6.493320 -42.097686  -0.000006 -19.785989   0.000056   8.846322  -4.344038   1.182474   5.430092  -5.888940  -8.223596   6.446835   0.000000   0.000023  -4.387333  -4.243540   2.917837  -6.448461  -0.000001  -0.000000   6.900232   2.361535   4.396902   3.384100  -0.000000   0.000004  -7.656415   4.658913   1.483233   0.487642  -0.000010   0.000002
 -2.349406   0.916646   4.029238  -2.823323   2.853601  -0.105410   1.986749   1.993393  -1.371248  11.421806  -0.720685   0.335028  -0.087512  -0.422707   0.193260   4.032515   7.172398  15.887693   7.636529  11.793312  43.416726  -0.000013  18.245049   0.000018  10.651397   3.473918   1.153347   4.083519  -3.879943 -16.608487   7.149154  -6.456918 -42.104771  -0.000008 -19.753798   0.000051   8.816985  -4.341031   1.185177   5.412121  -5.872567  -8.221007   6.490523   0.000000   0.000022  -4.415609  -4.250458   2.921893  -6.460303  -0.000000  -0.000000   6.888401   2.373951   4.398973   3.416607  -0.000000   0.000004  -7.697562   4.654085   1.523036   0.502227  -0.000013   0.000001
 -2.349443   0.916621   4.029474  -2.812608   2.844323  -0.109409   2.005008   1.990771  -1.384168  11.396625  -0.715767   0.323119  -0.106105  -0.413630   0.211816   4.015204   7.159404  15.871399   7.593884  11.786915  43.451960  -0.000016  18.264522   0.000025  10.609372   3.452134   1.143975   4.089632  -3.857735 -16.591057   7.163436  -6.421224 -42.111868  -0.000009 -19.722536   0.000046   8.788630  -4.332341   1.186230   5.396250  -5.856484  -8.217251   6.533372  -0.000000   0.000019  -4.443907  -4.255601   2.926555  -6.472875   0.000000  -0.000000   6.878276   2.386975   4.402415   3.450902  -0.000000   0.000005  -7.740593   4.651050   1.560408   0.515312  -0.000015   0.000001
 -2.349479   0.916595   4.029726  -2.801590   2.835750  -0.113919   2.020817   1.989092  -1.396166  11.372093  -0.709888   0.312223  -0.123581  -0.405297   0.229115   3.997365   7.148610  15.857448   7.552732  11.782325  43.485502  -0.000018  18.283518   0.000029  10.568861   3.436389   1.133772   4.096266  -3.836353 -16.575192   7.177443  -6.387279 -42.118873  -0.000010 -19.692928   0.000042   8.761469  -4.321138   1.185626   5.382402  -5.841530  -8.212811   6.573907  -0.000001   0.000018  -4.471633  -4.260130   2.931302  -6.486408   0.000001  -0.000000   6.869619   2.399188   4.406676   3.483680  -0.000001   0.000005  -7.783285   4.648319   1.595242   0.527049  -0.000015   0.000001
 -2.349514   0.916568   4.029993  -2.789837   2.828696  -0.118715   2.034431   1.988441  -1.407061  11.348068  -0.703319   0.302226  -0.140053  -0.397558   0.245244   3.979625   7.139489  15.845208   7.513478  11.778930  43.517207  -0.000019  18.301737   0.000031  10.529950   3.424425   1.123650   4.102807  -3.816099 -16.560770   7.190760  -6.355386 -42.125738  -0.000011 -19.665154   0.000039   8.735429  -4.309391   1.184121   5.370144  -5.828015  -8.207945   6.612076  -0.000001   0.000016  -4.498626  -4.264615   2.936093  -6.500955   0.000001  -0.000000   6.862057   2.410230   4.411450   3.514199  -0.000001   0.000005  -7.825043   4.645409   1.627746   0.537623  -0.000016   0.000001
 -2.349546   0.916542   4.030272  -2.777206   2.823191  -0.123716   2.046172   1.988741  -1.416834  11.324590  -0.696247   0.293052  -0.155578  -0.390335   0.260301   3.962218   7.131749  15.834269   7.476203  11.776429  43.547020  -0.000019  18.319093   0.000031  10.492618   3.415060   1.113791   4.109019  -3.797056 -16.547639   7.203255  -6.325574 -42.132413  -0.000011 -19.639209   0.000037   8.710458  -4.297951   1.182172   5.359143  -5.816044  -8.202776   6.647980  -0.000001   0.000015  -4.524817  -4.269325   2.940910  -6.516436   0.000002  -0.000000   6.855394   2.420118   4.416563   3.542318  -0.000001   0.000004  -7.865718   4.642258   1.658078   0.547183  -0.000015   0.000001
 -2.349574   0.916514   4.030563  -2.763634   2.819104  -0.128880   2.056325   1.989826  -1.425538  11.301738  -0.688840   0.284641  -0.170195  -0.383580   0.274372   3.945258   7.125180  15.824365   7.440894  11.774632  43.574956  -0.000019  18.335568   0.000031  10.456822   3.407649   1.104175   4.114818  -3.779220 -16.535653   7.214908  -6.297772 -42.138856  -0.000011 -19.615017   0.000035   8.686514  -4.287140   1.180018   5.349181  -5.805490  -8.197414   6.681701  -0.000001   0.000014  -4.550183  -4.274247   2.945699  -6.532784   0.000002  -0.000000   6.849479   2.428940   4.421894   3.568077  -0.000001   0.000004  -7.905298   4.638891   1.686375   0.555853  -0.000014   0.000001
 -2.349613   0.916476   4.030874  -2.770459   2.803317  -0.133304   2.092534   1.995683  -1.438966  11.275804  -0.679020   0.277160  -0.183644  -0.377152   0.298345   3.918022   7.113632  15.808870   7.389698  11.770940  43.616101  -0.000023  18.363968   0.000040  10.400260   3.384702   1.099260   4.112728  -3.760556 -16.517900   7.242096  -6.283184 -42.152311  -0.000012 -19.595672   0.000028   8.646590  -4.268748   1.191036   5.354873  -5.786412  -8.193056   6.727134  -0.000001   0.000012  -4.585548  -4.275532   2.951390  -6.545433   0.000002  -0.000000   6.858262   2.442608   4.425642   3.615544  -0.000001   0.000002  -7.963607   4.641898   1.733289   0.568204  -0.000016   0.000001
 -2.349658   0.916434   4.031211  -2.778472   2.785753  -0.138856   2.125444   2.001433  -1.452520  11.251822  -0.668977   0.269955  -0.195323  -0.371267   0.321481   3.889621   7.104464  15.795420   7.339432  11.769658  43.655124  -0.000027  18.392161   0.000048  10.344605   3.369943   1.090999   4.110959  -3.743321 -16.502653   7.267614  -6.269890 -42.165976  -0.000014 -19.577714   0.000023   8.608337  -4.251450   1.199743   5.363236  -5.767417  -8.187298   6.772793  -0.000001   0.000010  -4.622187  -4.274940   2.957704  -6.559008   0.000003  -0.000000   6.869263   2.456870   4.431197   3.665472  -0.000002   0.000000  -8.024812   4.646345   1.777122   0.579749  -0.000018   0.000001
 -2.349707   0.916391   4.031573  -2.784888   2.768934  -0.145229   2.154066   2.006968  -1.465620  11.227853  -0.659239   0.262728  -0.206231  -0.365863   0.343114   3.861732   7.096952  15.783643   7.291436  11.769514  43.691831  -0.000029  18.419130   0.000052  10.291098   3.360130   1.081612   4.109096  -3.727554 -16.489687   7.291239  -6.257871 -42.179571  -0.000015 -19.561081   0.000018   8.571741  -4.235711   1.206406   5.372632  -5.749698  -8.180330   6.816484  -0.000002   0.000008  -4.658670  -4.273993   2.964330  -6.573799   0.000003  -0.000000   6.881172   2.470612   4.438121   3.713201  -0.000003  -0.000002  -8.085820   4.650888   1.817920   0.590526  -0.000018   0.000001
 -2.349757   0.916348   4.031955  -2.789002   2.753553  -0.152236   2.178810   2.012351  -1.478135  11.203579  -0.649968   0.255455  -0.216647  -0.360853   0.363289   3.834828   7.090655  15.773036   7.245982  11.770026  43.726217  -0.000031  18.444681   0.000054  10.239753   3.353180   1.071924   4.106904  -3.713285 -16.478576   7.312928  -6.247160 -42.192923  -0.000015 -19.545781   0.000015   8.536695  -4.221904   1.211696   5.382418  -5.733496  -8.172383   6.857788  -0.000002   0.000007  -4.694575  -4.273184   2.971116  -6.589820   0.000004  -0.000000   6.893435   2.483512   4.446096   3.757652  -0.000004  -0.000003  -8.145778   4.655137   1.855981   0.600611  -0.000018   0.000001
 -2.349808   0.916304   4.032356  -2.790641   2.739722  -0.159767   2.200218   2.017580  -1.490038  11.179143  -0.641217   0.248162  -0.226620  -0.356188   0.382104   3.809051   7.085332  15.763263   7.203081  11.770957  43.758291  -0.000032  18.468790   0.000054  10.190515   3.348076   1.062104   4.104311  -3.700453 -16.468973   7.332750  -6.237696 -42.205889  -0.000015 -19.531760   0.000012   8.503125  -4.210135   1.216101   5.392265  -5.718788  -8.163650   6.896663  -0.000002   0.000006  -4.729725  -4.272647   2.977980  -6.607030   0.000004  -0.000000   6.905765   2.495517   4.454894   3.798648  -0.000004  -0.000003  -8.204426   4.659002   1.891510   0.610060  -0.000018   0.000000
